<svg width="226" height="61" viewBox="0 0 226 61" fill="none" xmlns="http://www.w3.org/2000/svg">
<path d="M19.7344 12.1562C19.1562 12.1562 18.6484 12.0781 18.2109 11.9219V10.625C18.6953 10.849 19.1875 10.9609 19.6875 10.9609C20.2604 10.9609 20.7188 10.8307 21.0625 10.5703C21.4115 10.3047 21.7578 9.8099 22.1016 9.08594L17.6562 0.578125H19.125L22.5 7.07031C22.6302 7.32552 22.7318 7.57552 22.8047 7.82031H22.8672C23.013 7.38281 23.1146 7.10677 23.1719 6.99219L25.9766 0.578125H27.3828L23.7344 8.75C23.2969 9.72396 22.901 10.4323 22.5469 10.875C22.1979 11.3177 21.8021 11.6432 21.3594 11.8516C20.9219 12.0547 20.3802 12.1562 19.7344 12.1562ZM30.0547 12H28.7578V3.4375H35.9453V12H34.6328V4.5625H30.0547V12ZM42.6797 12.1562C42.1224 12.1562 41.612 12.0547 41.1484 11.8516C40.6901 11.6432 40.3047 11.3255 39.9922 10.8984H39.8984C39.9609 11.3984 39.9922 11.8724 39.9922 12.3203V15.8438H38.6953V3.4375H39.75L39.9297 4.60938H39.9922C40.3255 4.14062 40.7135 3.80208 41.1562 3.59375C41.599 3.38542 42.1068 3.28125 42.6797 3.28125C43.8151 3.28125 44.6901 3.66927 45.3047 4.44531C45.9245 5.22135 46.2344 6.3099 46.2344 7.71094C46.2344 9.11719 45.9193 10.2109 45.2891 10.9922C44.6641 11.7682 43.7943 12.1562 42.6797 12.1562ZM42.4922 4.38281C41.6172 4.38281 40.9844 4.625 40.5938 5.10938C40.2031 5.59375 40.0026 6.36458 39.9922 7.42188V7.71094C39.9922 8.91406 40.1927 9.77604 40.5938 10.2969C40.9948 10.8125 41.638 11.0703 42.5234 11.0703C43.263 11.0703 43.8411 10.7708 44.2578 10.1719C44.6797 9.57292 44.8906 8.7474 44.8906 7.69531C44.8906 6.6276 44.6797 5.8099 44.2578 5.24219C43.8411 4.66927 43.2526 4.38281 42.4922 4.38281ZM53.7734 12L53.5156 10.7812H53.4531C53.026 11.3177 52.599 11.6823 52.1719 11.875C51.75 12.0625 51.2214 12.1562 50.5859 12.1562C49.737 12.1562 49.0703 11.9375 48.5859 11.5C48.1068 11.0625 47.8672 10.4401 47.8672 9.63281C47.8672 7.90365 49.25 6.9974 52.0156 6.91406L53.4688 6.86719V6.33594C53.4688 5.66406 53.3229 5.16927 53.0312 4.85156C52.7448 4.52865 52.2839 4.36719 51.6484 4.36719C50.9349 4.36719 50.1276 4.58594 49.2266 5.02344L48.8281 4.03125C49.25 3.80208 49.7109 3.6224 50.2109 3.49219C50.7161 3.36198 51.2214 3.29688 51.7266 3.29688C52.7474 3.29688 53.5026 3.52344 53.9922 3.97656C54.487 4.42969 54.7344 5.15625 54.7344 6.15625V12H53.7734ZM50.8438 11.0859C51.651 11.0859 52.2839 10.8646 52.7422 10.4219C53.2057 9.97917 53.4375 9.35938 53.4375 8.5625V7.78906L52.1406 7.84375C51.1094 7.88021 50.3646 8.04167 49.9062 8.32812C49.4531 8.60938 49.2266 9.04948 49.2266 9.64844C49.2266 10.1172 49.3672 10.474 49.6484 10.7188C49.9349 10.9635 50.3333 11.0859 50.8438 11.0859ZM64.3594 5.58594C64.3594 6.14323 64.1979 6.56771 63.875 6.85938C63.5573 7.14583 63.1094 7.33854 62.5312 7.4375V7.50781C63.2604 7.60677 63.7917 7.82031 64.125 8.14844C64.4635 8.47656 64.6328 8.92969 64.6328 9.50781C64.6328 10.3047 64.3385 10.9193 63.75 11.3516C63.1667 11.7839 62.3125 12 61.1875 12H57.4141V3.4375H61.1719C63.2969 3.4375 64.3594 4.15365 64.3594 5.58594ZM63.3359 9.42188C63.3359 8.95833 63.1589 8.6224 62.8047 8.41406C62.4557 8.20052 61.875 8.09375 61.0625 8.09375H58.7109V10.9141H61.0938C62.5885 10.9141 63.3359 10.4167 63.3359 9.42188ZM63.0938 5.71094C63.0938 5.29427 62.9323 5 62.6094 4.82812C62.2917 4.65104 61.8073 4.5625 61.1562 4.5625H58.7109V6.97656H60.9062C61.7083 6.97656 62.2734 6.8776 62.6016 6.67969C62.9297 6.48177 63.0938 6.15885 63.0938 5.71094ZM72.9062 12H71.5938V4.54688H69.0234C68.8828 6.40104 68.6875 7.8724 68.4375 8.96094C68.1875 10.0495 67.862 10.8464 67.4609 11.3516C67.0651 11.8568 66.5599 12.1094 65.9453 12.1094C65.6641 12.1094 65.4401 12.0781 65.2734 12.0156V11.0547C65.388 11.0859 65.5182 11.1016 65.6641 11.1016C66.263 11.1016 66.7396 10.4688 67.0938 9.20312C67.4479 7.9375 67.7161 6.01562 67.8984 3.4375H72.9062V12ZM76.0938 12H74.5781L77.0391 8.38281C76.3776 8.23698 75.8698 7.95573 75.5156 7.53906C75.1667 7.11719 74.9922 6.58854 74.9922 5.95312C74.9922 5.17188 75.2552 4.55729 75.7812 4.10938C76.3073 3.66146 77.0417 3.4375 77.9844 3.4375H81.7969V12H80.5V8.57812H78.3359L76.0938 12ZM76.2578 5.96875C76.2578 6.95833 76.9766 7.45312 78.4141 7.45312H80.5V4.5625H78.1484C76.888 4.5625 76.2578 5.03125 76.2578 5.96875ZM95.5781 7.71094C95.5781 9.11198 95.2422 10.2031 94.5703 10.9844C93.9036 11.7656 92.987 12.1562 91.8203 12.1562C90.7109 12.1562 89.8307 11.8099 89.1797 11.1172C88.5286 10.4193 88.1667 9.42708 88.0938 8.14062H85.8516V12H84.5547V3.4375H85.8516V7.02344H88.1094C88.2135 5.83594 88.5938 4.91667 89.25 4.26562C89.9062 3.60938 90.7734 3.28125 91.8516 3.28125C92.9974 3.28125 93.9036 3.67969 94.5703 4.47656C95.2422 5.26823 95.5781 6.34635 95.5781 7.71094ZM89.4375 7.71094C89.4375 8.8099 89.6276 9.64583 90.0078 10.2188C90.388 10.7865 90.9974 11.0703 91.8359 11.0703C92.6589 11.0703 93.263 10.7943 93.6484 10.2422C94.0391 9.6849 94.2344 8.84115 94.2344 7.71094C94.2344 6.61719 94.0443 5.78906 93.6641 5.22656C93.2839 4.66406 92.6745 4.38281 91.8359 4.38281C90.9974 4.38281 90.388 4.66406 90.0078 5.22656C89.6276 5.78906 89.4375 6.61719 89.4375 7.71094ZM104.234 10.8828H108.031V3.45312H109.328V10.8828H110.555V14.9453H109.242V12H97.8516V3.45312H99.1484V10.8828H102.938V3.45312H104.234V10.8828ZM117.477 12L117.219 10.7812H117.156C116.729 11.3177 116.302 11.6823 115.875 11.875C115.453 12.0625 114.924 12.1562 114.289 12.1562C113.44 12.1562 112.773 11.9375 112.289 11.5C111.81 11.0625 111.57 10.4401 111.57 9.63281C111.57 7.90365 112.953 6.9974 115.719 6.91406L117.172 6.86719V6.33594C117.172 5.66406 117.026 5.16927 116.734 4.85156C116.448 4.52865 115.987 4.36719 115.352 4.36719C114.638 4.36719 113.831 4.58594 112.93 5.02344L112.531 4.03125C112.953 3.80208 113.414 3.6224 113.914 3.49219C114.419 3.36198 114.924 3.29688 115.43 3.29688C116.451 3.29688 117.206 3.52344 117.695 3.97656C118.19 4.42969 118.438 5.15625 118.438 6.15625V12H117.477ZM114.547 11.0859C115.354 11.0859 115.987 10.8646 116.445 10.4219C116.909 9.97917 117.141 9.35938 117.141 8.5625V7.78906L115.844 7.84375C114.812 7.88021 114.068 8.04167 113.609 8.32812C113.156 8.60938 112.93 9.04948 112.93 9.64844C112.93 10.1172 113.07 10.474 113.352 10.7188C113.638 10.9635 114.036 11.0859 114.547 11.0859ZM121.547 12H120.031L122.492 8.38281C121.831 8.23698 121.323 7.95573 120.969 7.53906C120.62 7.11719 120.445 6.58854 120.445 5.95312C120.445 5.17188 120.708 4.55729 121.234 4.10938C121.76 3.66146 122.495 3.4375 123.438 3.4375H127.25V12H125.953V8.57812H123.789L121.547 12ZM121.711 5.96875C121.711 6.95833 122.43 7.45312 123.867 7.45312H125.953V4.5625H123.602C122.341 4.5625 121.711 5.03125 121.711 5.96875ZM139.156 3.4375H140.578L136.883 7.57031L140.883 12H139.367L135.461 7.66406V12H134.164V3.4375H135.461V7.60156L139.156 3.4375ZM149.867 7.71094C149.867 9.10677 149.516 10.1979 148.812 10.9844C148.109 11.7656 147.138 12.1562 145.898 12.1562C145.133 12.1562 144.453 11.9766 143.859 11.6172C143.266 11.2578 142.807 10.7422 142.484 10.0703C142.161 9.39844 142 8.61198 142 7.71094C142 6.3151 142.349 5.22917 143.047 4.45312C143.745 3.67188 144.714 3.28125 145.953 3.28125C147.151 3.28125 148.102 3.67969 148.805 4.47656C149.513 5.27344 149.867 6.35156 149.867 7.71094ZM143.344 7.71094C143.344 8.80469 143.562 9.63802 144 10.2109C144.438 10.7839 145.081 11.0703 145.93 11.0703C146.779 11.0703 147.422 10.7865 147.859 10.2188C148.302 9.64583 148.523 8.8099 148.523 7.71094C148.523 6.6224 148.302 5.79688 147.859 5.23438C147.422 4.66667 146.773 4.38281 145.914 4.38281C145.065 4.38281 144.424 4.66146 143.992 5.21875C143.56 5.77604 143.344 6.60677 143.344 7.71094ZM156.594 10.75L156.836 10.0234L157.172 9.10156L159.492 3.45312H161.141V12H159.992V4.92969L159.836 5.38281L159.383 6.57812L157.172 12H156.086L153.875 6.5625C153.599 5.86458 153.409 5.32031 153.305 4.92969V12H152.148V3.45312H153.734L155.977 8.88281C156.201 9.45573 156.406 10.0781 156.594 10.75ZM165.211 12H163.914V3.4375H171.102V12H169.789V4.5625H165.211V12ZM179.117 12L178.859 10.7812H178.797C178.37 11.3177 177.943 11.6823 177.516 11.875C177.094 12.0625 176.565 12.1562 175.93 12.1562C175.081 12.1562 174.414 11.9375 173.93 11.5C173.451 11.0625 173.211 10.4401 173.211 9.63281C173.211 7.90365 174.594 6.9974 177.359 6.91406L178.812 6.86719V6.33594C178.812 5.66406 178.667 5.16927 178.375 4.85156C178.089 4.52865 177.628 4.36719 176.992 4.36719C176.279 4.36719 175.471 4.58594 174.57 5.02344L174.172 4.03125C174.594 3.80208 175.055 3.6224 175.555 3.49219C176.06 3.36198 176.565 3.29688 177.07 3.29688C178.091 3.29688 178.846 3.52344 179.336 3.97656C179.831 4.42969 180.078 5.15625 180.078 6.15625V12H179.117ZM176.188 11.0859C176.995 11.0859 177.628 10.8646 178.086 10.4219C178.549 9.97917 178.781 9.35938 178.781 8.5625V7.78906L177.484 7.84375C176.453 7.88021 175.708 8.04167 175.25 8.32812C174.797 8.60938 174.57 9.04948 174.57 9.64844C174.57 10.1172 174.711 10.474 174.992 10.7188C175.279 10.9635 175.677 11.0859 176.188 11.0859ZM184.055 3.4375V7.02344H188.852V3.4375H190.148V12H188.852V8.14062H184.055V12H182.758V3.4375H184.055ZM194.117 3.4375V8.86719L194.062 10.2891L194.039 10.7344L198.672 3.4375H200.289V12H199.078V6.76562L199.102 5.73438L199.141 4.71875L194.516 12H192.898V3.4375H194.117ZM203.469 12H201.953L204.414 8.38281C203.753 8.23698 203.245 7.95573 202.891 7.53906C202.542 7.11719 202.367 6.58854 202.367 5.95312C202.367 5.17188 202.63 4.55729 203.156 4.10938C203.682 3.66146 204.417 3.4375 205.359 3.4375H209.172V12H207.875V8.57812H205.711L203.469 12ZM203.633 5.96875C203.633 6.95833 204.352 7.45312 205.789 7.45312H207.875V4.5625H205.523C204.263 4.5625 203.633 5.03125 203.633 5.96875ZM2.70248 52C2.03048 52 1.51448 51.712 1.15448 51.136C0.794484 50.56 0.758484 49.948 1.04648 49.3L11.1625 25.144C11.5225 24.304 12.1105 23.884 12.9265 23.884C13.7905 23.884 14.3785 24.304 14.6905 25.144L24.8425 49.372C25.1065 50.044 25.0705 50.656 24.7345 51.208C24.4225 51.736 23.9185 52 23.2225 52C22.8625 52 22.5145 51.904 22.1785 51.712C21.8665 51.496 21.6385 51.208 21.4945 50.848L13.0705 30.076L4.43048 50.848C4.26248 51.232 4.01048 51.52 3.67448 51.712C3.36248 51.904 3.03848 52 2.70248 52ZM36.4851 52.144C34.7331 52.144 33.1611 51.712 31.7691 50.848C30.3771 49.96 29.2731 48.772 28.4571 47.284C27.6651 45.772 27.2691 44.068 27.2691 42.172C27.2691 40.276 27.7011 38.572 28.5651 37.06C29.4531 35.548 30.6411 34.36 32.1291 33.496C33.6411 32.608 35.3331 32.164 37.2051 32.164C39.0771 32.164 40.7571 32.608 42.2451 33.496C43.7331 34.36 44.9091 35.548 45.7731 37.06C46.6611 38.572 47.1051 40.276 47.1051 42.172V50.2C47.1051 50.728 46.9251 51.172 46.5651 51.532C46.2291 51.868 45.7971 52.036 45.2691 52.036C44.7411 52.036 44.2971 51.868 43.9371 51.532C43.6011 51.172 43.4331 50.728 43.4331 50.2V48.868C42.5931 49.876 41.5731 50.68 40.3731 51.28C39.1971 51.856 37.9011 52.144 36.4851 52.144ZM37.2051 48.904C38.4291 48.904 39.5211 48.616 40.4811 48.04C41.4411 47.44 42.1971 46.636 42.7491 45.628C43.3011 44.596 43.5771 43.444 43.5771 42.172C43.5771 40.876 43.3011 39.724 42.7491 38.716C42.1971 37.684 41.4411 36.88 40.4811 36.304C39.5211 35.704 38.4291 35.404 37.2051 35.404C36.0051 35.404 34.9131 35.704 33.9291 36.304C32.9691 36.88 32.2011 37.684 31.6251 38.716C31.0731 39.724 30.7971 40.876 30.7971 42.172C30.7971 43.444 31.0731 44.596 31.6251 45.628C32.2011 46.636 32.9691 47.44 33.9291 48.04C34.9131 48.616 36.0051 48.904 37.2051 48.904ZM60.8501 52.18C59.1941 52.18 57.7061 51.832 56.3861 51.136C55.0901 50.416 54.0581 49.372 53.2901 48.004C52.5461 46.636 52.1741 44.956 52.1741 42.964V34.108C52.1741 33.58 52.3421 33.148 52.6781 32.812C53.0381 32.452 53.4821 32.272 54.0101 32.272C54.5381 32.272 54.9701 32.452 55.3061 32.812C55.6661 33.148 55.8461 33.58 55.8461 34.108V42.964C55.8461 45.004 56.3861 46.504 57.4661 47.464C58.5701 48.4 59.9381 48.868 61.5701 48.868C62.6021 48.868 63.5141 48.664 64.3061 48.256C65.1221 47.848 65.7701 47.296 66.2501 46.6C66.7301 45.904 66.9701 45.124 66.9701 44.26V34.108C66.9701 33.556 67.1381 33.112 67.4741 32.776C67.8341 32.44 68.2781 32.272 68.8061 32.272C69.3581 32.272 69.8021 32.44 70.1381 32.776C70.4741 33.112 70.6421 33.556 70.6421 34.108V50.164C70.6421 50.692 70.4741 51.136 70.1381 51.496C69.8021 51.832 69.3581 52 68.8061 52C68.2781 52 67.8341 51.832 67.4741 51.496C67.1381 51.136 66.9701 50.692 66.9701 50.164V49.768C66.2261 50.512 65.3261 51.1 64.2701 51.532C63.2141 51.964 62.0741 52.18 60.8501 52.18ZM61.6061 29.716C60.3821 29.716 59.2781 29.512 58.2941 29.104C57.3101 28.672 56.5301 28.096 55.9541 27.376C55.3781 26.632 55.0901 25.804 55.0901 24.892C55.0901 24.388 55.2461 23.968 55.5581 23.632C55.8701 23.296 56.2541 23.128 56.7101 23.128C57.1901 23.128 57.5741 23.296 57.8621 23.632C58.1741 23.968 58.3301 24.388 58.3301 24.892C58.3301 25.492 58.6421 26.008 59.2661 26.44C59.8901 26.848 60.6701 27.052 61.6061 27.052C62.5421 27.052 63.3221 26.848 63.9461 26.44C64.5701 26.008 64.8821 25.492 64.8821 24.892C64.8821 24.388 65.0381 23.968 65.3501 23.632C65.6621 23.296 66.0461 23.128 66.5021 23.128C66.9821 23.128 67.3661 23.296 67.6541 23.632C67.9661 23.968 68.1221 24.388 68.1221 24.892C68.1221 25.804 67.8341 26.632 67.2581 27.376C66.6821 28.096 65.9021 28.672 64.9181 29.104C63.9581 29.512 62.8541 29.716 61.6061 29.716ZM79.6291 42.172C79.6291 43.468 79.8931 44.62 80.4211 45.628C80.9731 46.636 81.7291 47.428 82.6891 48.004C83.6491 48.58 84.7411 48.88 85.9651 48.904V35.404C84.7411 35.404 83.6491 35.704 82.6891 36.304C81.7291 36.88 80.9731 37.672 80.4211 38.68C79.8931 39.688 79.6291 40.852 79.6291 42.172ZM95.9731 42.172C95.9731 40.852 95.6971 39.688 95.1451 38.68C94.6171 37.672 93.8731 36.88 92.9131 36.304C91.9771 35.704 90.8851 35.404 89.6371 35.404V48.904C90.8851 48.88 91.9771 48.58 92.9131 48.004C93.8731 47.428 94.6171 46.636 95.1451 45.628C95.6971 44.62 95.9731 43.468 95.9731 42.172ZM85.9651 52.144C84.0211 52.12 82.3051 51.688 80.8171 50.848C79.3531 49.984 78.2011 48.808 77.3611 47.32C76.5211 45.808 76.1011 44.092 76.1011 42.172C76.1011 40.228 76.5211 38.512 77.3611 37.024C78.2011 35.512 79.3531 34.324 80.8171 33.46C82.3051 32.596 84.0211 32.164 85.9651 32.164V25.72C85.9651 25.168 86.1331 24.724 86.4691 24.388C86.8291 24.052 87.2731 23.884 87.8011 23.884C88.3531 23.884 88.7971 24.052 89.1331 24.388C89.4691 24.724 89.6371 25.168 89.6371 25.72V32.164C91.5811 32.164 93.2851 32.596 94.7491 33.46C96.2371 34.324 97.4011 35.512 98.2411 37.024C99.0811 38.512 99.5011 40.228 99.5011 42.172C99.5011 44.092 99.0811 45.808 98.2411 47.32C97.4011 48.808 96.2371 49.984 94.7491 50.848C93.2851 51.688 91.5811 52.12 89.6371 52.144V58.588C89.6371 59.116 89.4691 59.548 89.1331 59.884C88.7971 60.244 88.3531 60.424 87.8011 60.424C87.2731 60.424 86.8291 60.244 86.4691 59.884C86.1331 59.548 85.9651 59.116 85.9651 58.588V52.144ZM117.767 52C117.239 52 116.795 51.82 116.435 51.46C116.075 51.1 115.895 50.656 115.895 50.128V25.756C115.895 25.204 116.075 24.76 116.435 24.424C116.795 24.064 117.239 23.884 117.767 23.884H132.635C133.187 23.884 133.631 24.052 133.967 24.388C134.303 24.7 134.471 25.12 134.471 25.648C134.471 26.152 134.303 26.56 133.967 26.872C133.631 27.184 133.187 27.34 132.635 27.34H119.639V50.128C119.639 50.656 119.459 51.1 119.099 51.46C118.739 51.82 118.295 52 117.767 52ZM139.906 60.424C139.378 60.424 138.934 60.244 138.574 59.884C138.238 59.548 138.07 59.116 138.07 58.588V42.172C138.094 40.276 138.538 38.572 139.402 37.06C140.266 35.548 141.442 34.36 142.93 33.496C144.418 32.608 146.098 32.164 147.97 32.164C149.866 32.164 151.558 32.608 153.046 33.496C154.534 34.36 155.71 35.548 156.574 37.06C157.462 38.572 157.906 40.276 157.906 42.172C157.906 44.068 157.498 45.772 156.682 47.284C155.89 48.772 154.798 49.96 153.406 50.848C152.014 51.712 150.442 52.144 148.69 52.144C147.274 52.144 145.966 51.856 144.766 51.28C143.59 50.68 142.582 49.876 141.742 48.868V58.588C141.742 59.116 141.574 59.548 141.238 59.884C140.902 60.244 140.458 60.424 139.906 60.424ZM147.97 48.904C149.194 48.904 150.286 48.616 151.246 48.04C152.206 47.44 152.962 46.636 153.514 45.628C154.09 44.596 154.378 43.444 154.378 42.172C154.378 40.876 154.09 39.724 153.514 38.716C152.962 37.684 152.206 36.88 151.246 36.304C150.286 35.704 149.194 35.404 147.97 35.404C146.77 35.404 145.678 35.704 144.694 36.304C143.734 36.88 142.978 37.684 142.426 38.716C141.874 39.724 141.598 40.876 141.598 42.172C141.598 43.444 141.874 44.596 142.426 45.628C142.978 46.636 143.734 47.44 144.694 48.04C145.678 48.616 146.77 48.904 147.97 48.904ZM161.861 60.64C161.429 60.64 160.985 60.58 160.529 60.46C160.097 60.34 159.665 60.16 159.233 59.92C158.705 59.608 158.357 59.224 158.189 58.768C158.021 58.312 158.093 57.868 158.405 57.436C158.693 57.028 159.041 56.776 159.449 56.68C159.857 56.584 160.289 56.668 160.745 56.932C161.249 57.22 161.729 57.364 162.185 57.364C163.649 57.364 165.089 55.792 166.505 52.648L167.657 50.02L159.593 34.684C159.353 34.228 159.317 33.796 159.485 33.388C159.677 32.956 160.001 32.644 160.457 32.452C160.913 32.26 161.333 32.248 161.717 32.416C162.125 32.56 162.449 32.86 162.689 33.316L169.313 46.312L175.109 33.208C175.325 32.728 175.649 32.404 176.081 32.236C176.537 32.068 176.993 32.092 177.449 32.308C177.857 32.476 178.121 32.788 178.241 33.244C178.361 33.676 178.301 34.144 178.061 34.648L169.385 54.088C168.521 56.032 167.417 57.604 166.073 58.804C164.753 60.028 163.349 60.64 161.861 60.64ZM183.851 52.036C183.323 52.036 182.879 51.868 182.519 51.532C182.183 51.172 182.015 50.728 182.015 50.2V34.144C182.015 33.592 182.183 33.148 182.519 32.812C182.879 32.476 183.323 32.308 183.851 32.308C184.403 32.308 184.847 32.476 185.183 32.812C185.519 33.148 185.687 33.592 185.687 34.144V34.54C186.431 33.796 187.331 33.208 188.387 32.776C189.443 32.344 190.583 32.128 191.807 32.128C193.463 32.128 194.939 32.488 196.235 33.208C197.555 33.904 198.587 34.936 199.331 36.304C200.099 37.672 200.483 39.352 200.483 41.344V50.2C200.483 50.728 200.303 51.172 199.943 51.532C199.607 51.868 199.175 52.036 198.647 52.036C198.119 52.036 197.675 51.868 197.315 51.532C196.979 51.172 196.811 50.728 196.811 50.2V41.344C196.811 39.304 196.259 37.816 195.155 36.88C194.075 35.92 192.719 35.44 191.087 35.44C190.079 35.44 189.167 35.644 188.351 36.052C187.535 36.46 186.887 37.012 186.407 37.708C185.927 38.38 185.687 39.16 185.687 40.048V50.2C185.687 50.728 185.519 51.172 185.183 51.532C184.847 51.868 184.403 52.036 183.851 52.036ZM208.39 52.036C207.862 52.036 207.418 51.868 207.058 51.532C206.722 51.172 206.554 50.728 206.554 50.2V34.144C206.554 33.592 206.722 33.148 207.058 32.812C207.418 32.476 207.862 32.308 208.39 32.308C208.942 32.308 209.386 32.476 209.722 32.812C210.058 33.148 210.226 33.592 210.226 34.144V34.54C210.97 33.796 211.87 33.208 212.926 32.776C213.982 32.344 215.122 32.128 216.346 32.128C218.002 32.128 219.478 32.488 220.774 33.208C222.094 33.904 223.126 34.936 223.87 36.304C224.638 37.672 225.022 39.352 225.022 41.344V50.2C225.022 50.728 224.842 51.172 224.482 51.532C224.146 51.868 223.714 52.036 223.186 52.036C222.658 52.036 222.214 51.868 221.854 51.532C221.518 51.172 221.35 50.728 221.35 50.2V41.344C221.35 39.304 220.798 37.816 219.694 36.88C218.614 35.92 217.258 35.44 215.626 35.44C214.618 35.44 213.706 35.644 212.89 36.052C212.074 36.46 211.426 37.012 210.946 37.708C210.466 38.38 210.226 39.16 210.226 40.048V50.2C210.226 50.728 210.058 51.172 209.722 51.532C209.386 51.868 208.942 52.036 208.39 52.036Z" fill="#30302F"/>
</svg>
